# xmcd
#
# Track frame offsets:
#	300
#	22736
#	37012
#	54436
#	65943
#	85234
#	99652
#	114869
#	130804
#	142311
#	164829
#	182893
#
# Disc length: 2606 seconds
#
# Revision: 1
# Processed by: cddbd v1.5.2PL0 Copyright (c) Steve Scherf et al.
# Submitted via: audiograbber 1.83.01
#
DISCID=b00a2a0c
DTITLE=Ernest Lane - The Blues is back!
DYEAR=2004
DGENRE=Blues
TTITLE0=Blue and Lonesome
TTITLE1=I'll be watching you
TTITLE2=The Blues is back
TTITLE3=What's Wrong, Baby
TTITLE4=What I saw
TTITLE5=Lane Shuffle
TTITLE6=What Kind of Love
TTITLE7=Baby please
TTITLE8=Just like a Woman
TTITLE9=Feelin' Kind of lonely
TTITLE10=My Baby's Love
TTITLE11=Boogiein' at Leon's Place
EXTD=Label: Acoustic Music\nBestellnummer: 31913312\n\n\n Für freedb bereitgest
EXTD=elt von:\n    KELLER'
EXTT0=Komponist: Peter Chatman\n
EXTT1=
EXTT2=
EXTT3=
EXTT4=
EXTT5=
EXTT6=
EXTT7=Komponist: Percy Mayfield\n
EXTT8=Komponist: Demetrius/Moore\n
EXTT9=
EXTT10=
EXTT11=
PLAYORDER=
